<svg xmlns="http://www.w3.org/2000/svg" xmlns:ns1="https://github.com/mikedh/trimesh" width="27.00mm" height="246.01mm" viewBox="0 0 27.00 246.01" ns1:class="Path2D" ns1:metadata="base64,e30=" data-slice-direction="[1, 0, 0]" data-layer-number="76" data-current-height="150.000">
<path d="M13.8673375296576,166.7483442549193L13.1420325286449,166.7483442549193L12.8236196585768,166.7483442549193L12.1387462348864,166.7483442549193L11.8277029182739,166.7483442549193L11.1602324224118,166.7483442549193L10.8215781011525,166.7483442549193L10.1548702260776,166.7483442549193L9.8389098208156,166.7483442549193L9.1580972750449,166.7483442549193L8.8290972471190,166.7483442549193L8.1215787874906,166.7483442549193L7.7891685622813,166.7483442549193L7.2108314377187,166.7483442549193L6.8575225253695,166.7483442549193L6.1665955223805,166.7483442549193L5.7953561922410,166.7483442549193L5.2046438077590,166.7483442549193L4.8990098520172,166.7483442549193L4.1940375993752,166.7483442549193L3.8570080269266,166.7483442549193L3.1463151678797,166.7483442549193L2.8970715877932,166.7483442549193L2.2812056516914,166.7483442549193L2.0000000000000,166.7483442549193L2.0000000000000,166.2142496423796L2.0000000000000,165.7841857018094L2.0000000000000,165.2452730844041L2.0000000000000,164.8546919277305L2.0000000000000,164.5210191636822L2.0000000000000,164.0240877513785L2.0000000000000,163.4564669395872L2.0000000000000,163.0647441390145L2.0000000000000,162.6841510081425L2.0000000000000,162.2088842091299L2.0000000000000,161.7101655566230L2.0000000000000,161.3392068339689L2.0000000000000,160.9764163490199L2.0000000000000,160.4831973816167L2.0000000000000,159.9560058161148L2.0000000000000,159.6202701146308L2.0000000000000,159.3002848579798L2.0000000000000,158.7737603060542L2.0000000000000,158.2368195472907L2.0000000000000,157.9255759438856L2.0000000000000,157.6146796380906L2.0000000000000,157.0787945080039L2.0000000000000,156.5429200604748L2.0000000000000,156.2318988226696L2.0000000000000,155.9186031285272L2.0000000000000,155.3812356849477L2.0000000000000,154.8350297194551L2.0000000000000,154.5196739357512L2.0000000000000,154.2231090593943L2.0000000000000,153.6737982772830L2.0000000000000,153.0828146012465L2.0000000000000,152.8248606846105L2.0000000000000,152.5673997109847L2.0000000000000,151.9727571076326L2.0000000000000,151.4116905700701L2.0000000000000,151.1238651486391L2.0000000000000,150.8321831506008L2.0000000000000,150.2786023490348L2.0000000000000,149.7262001461889L2.0000000000000,149.4332045782457L2.0000000000000,149.1401113933598L2.0000000000000,148.5876925124398L2.0000000000000,148.0417763768666L2.0000000000000,147.7433091185753L2.0000000000000,147.4405278062237L2.0000000000000,146.9001064408960L2.0000000000000,146.3702861534627L2.0000000000000,146.0583331693024L2.0000000000000,145.7416500841683L2.0000000000000,145.2163754704493L2.0000000000000,144.6937313154561L2.0000000000000,144.3744016232411L2.0000000000000,144.0540258453625L2.0000000000000,143.5332267670868L2.0000000000000,143.0147009872526L2.0000000000000,142.6919307931104L2.0000000000000,142.3675006616788L2.0000000000000,141.8507022933787L2.0000000000000,141.3363340769353L2.0000000000000,141.0098351493806L2.0000000000000,140.6818709855979L2.0000000000000,140.1694724305886L2.0000000000000,139.6601739076672L2.0000000000000,139.3295893807204L2.0000000000000,138.9830982617337L2.0000000000000,138.5021932090391L2.0000000000000,138.0792924757029L2.0000000000000,137.7501751687400L2.0000000000000,137.3898784257365L2.0000000000000,136.9116859510875L2.0000000000000,136.1319567026027L2.0000000000000,135.9003130073447L2.0000000000000,135.5745243917122L2.0000000000000,135.0117314606620L2.0000000000000,134.4471197624877L2.0000000000000,134.1813529829431L2.0000000000000,133.9442451786822L2.0000000000000,133.3460787815136L2.0000000000000,132.7349014628950L2.0000000000000,132.5099491658941L2.0000000000000,132.2859147684184L2.0000000000000,131.6737953237197L2.0000000000000,131.0612859200580L2.0000000000000,130.8370260456504L2.0000000000000,130.6128628748408L2.0000000000000,129.9999421688887L2.0000000000000,129.3867942994537L2.0000000000000,129.1641166365112L2.0000000000000,128.9449064016291L2.0000000000000,128.3385416306353L2.0000000000000,127.7136117512005L2.0000000000000,127.3839325175609L2.0000000000000,126.8232325540830L2.0000000000000,126.5428314787193L2.0000000000000,126.2642028118858L2.0000000000000,125.7028448364946L2.0000000000000,125.1413247153505L2.0000000000000,124.8471270807828L2.0000000000000,124.5461175970516L2.0000000000000,123.9948854638554L2.0000000000000,123.4576411395722L2.0000000000000,123.1535139194590L2.0000000000000,122.8485440611771L2.0000000000000,122.3140713662685L2.0000000000000,121.7791742230923L2.0000000000000,121.4689348414473L2.0000000000000,121.1652490975129L2.0000000000000,120.6260932699542L2.0000000000000,120.0866977281894L2.0000000000000,119.7882870442073L2.0000000000000,119.4921545073761L2.0000000000000,118.9561415408506L2.0000000000000,118.4241489113521L2.0000000000000,118.1127884152118L2.0000000000000,117.7990296217060L2.0000000000000,117.2651815180527L2.0000000000000,116.7342818555603L2.0000000000000,116.4187388128349L2.0000000000000,116.1033276828189L2.0000000000000,115.5881577072354L2.0000000000000,115.0987722291819L2.0000000000000,114.7980567667294L2.0000000000000,114.5687126888822L2.0000000000000,114.1139857933109L2.0000000000000,113.5542582452738L2.0000000000000,113.3613201590782L2.0000000000000,113.0154112920754L2.0000000000000,112.5776611737127L2.0000000000000,112.1623722448740L2.0000000000000,111.8034778260426L2.0000000000000,111.4322690161525L2.0000000000000,110.9808667277332L2.0000000000000,110.4756326975268L2.0000000000000,110.1172726392873L2.0000000000000,109.7532950123507L2.0000000000000,109.2786201239098L2.0000000000000,108.8322029300801L2.0000000000000,108.4498862405175L2.0000000000000,108.0791581827124L2.0000000000000,107.6220922819029L2.0000000000000,107.1193822277640L2.0000000000000,106.7628006438040L2.0000000000000,106.4048781776060L2.0000000000000,105.9201759134954L2.0000000000000,105.4682076689051L2.0000000000000,105.0853353236307L2.0000000000000,104.7000898652006L2.0000000000000,104.2458539793214L2.0000000000000,103.7891567014459L2.0000000000000,103.4099922549362L2.0000000000000,103.0305755727940L2.0000000000000,102.5742860325982L2.0000000000000,102.1159231029403L2.0000000000000,101.7354816429307L2.0000000000000,101.3552082533492L2.0000000000000,100.8997635891268L2.0000000000000,100.4420971532380L2.0000000000000,100.0632773167343L2.0000000000000,99.6887040061713L2.0000000000000,99.2206538449207L2.0000000000000,98.7386452890295L2.0000000000000,98.3722606260455L2.0000000000000,97.9940591744777L2.0000000000000,97.5108734407175L2.0000000000000,97.0439331004323L2.0000000000000,96.6439859134962L2.0000000000000,96.2367717834738L2.0000000000000,95.7847074921012L2.0000000000000,95.3512984714168L2.0000000000000,94.8962982525519L2.0000000000000,94.3683506081009L2.0000000000000,94.0189266188345L2.0000000000000,93.7173419046026L2.0000000000000,93.1701872120989L2.0000000000000,92.6103780841148L2.0000000000000,92.3327517465112L2.0000000000000,92.0559299921869L2.0000000000000,91.4955386477738L2.0000000000000,90.9340262613774L2.0000000000000,90.6574930467363L2.0000000000000,90.3829163676714L2.0000000000000,89.8212213965913L2.0000000000000,89.2559656104824L2.0000000000000,88.9800424220691L2.0000000000000,88.7079319486908L2.0000000000000,88.1461825918242L2.0000000000000,87.5824080403594L2.0000000000000,87.3119123258120L2.0000000000000,87.0437624517670L2.0000000000000,86.4793277115779L2.0000000000000,85.9108718317910L2.0000000000000,85.6484818544541L2.0000000000000,85.3805233522048L2.0000000000000,84.8179305823431L2.0000000000000,84.2537828867363L2.0000000000000,83.9940513994407L2.0000000000000,83.6781772705869L2.0000000000000,83.2280815109750L2.0000000000000,82.7671209211263L2.0000000000000,82.4932215000360L2.0000000000000,82.2451657236247L2.0000000000000,81.7437788879795L2.0000000000000,81.3145192670462L2.0000000000000,80.9791126484941L2.0000000000000,80.6163232271241L2.0000000000000,80.1458038764754L2.2812056516915,80.1458038764754L2.8970715877931,80.1458038764754L3.1663668280245,80.1458038764754L3.8279908926414,80.1458038764754L4.1296614794598,80.1458038764754L4.8159195766868,80.1458038764754L5.1330034271193,80.1458038764754L5.8568091815648,80.1458038764754L6.1763803414230,80.1458038764754L6.8612537651132,80.1458038764754L7.1735368114216,80.1458038764754L7.8403584197054,80.1458038764754L8.1903003108399,80.1458038764754L8.8506330545766,80.1458038764754L9.1610901791843,80.1458038764754L9.8419027249549,80.1458038764754L10.1703409583144,80.1458038764754L10.8783554312443,80.1458038764754L11.2102429932591,80.1458038764754L11.7920859513454,80.1458038764754L12.1299409352217,80.1458038764754L12.8354878776830,80.1458038764754L13.1652839201273,80.1458038764754L13.8449649301635,80.1458038764754L14.1624527888024,80.1458038764754L14.8396001922624,80.1458038764754L15.1514694934087,80.1458038764754L15.8586267679189,80.1458038764754L16.1029284122069,80.1458038764754L16.7187943483086,80.1458038764754L17.0000000000000,80.1458038764754L17.0000000000000,80.6238802244156L17.0000000000000,80.9762998336347L17.0000000000000,81.3022965601714L17.0000000000000,81.7438264781538L17.0000000000000,82.2458717675396L17.0000000000000,82.4932215000382L17.0000000000000,82.7670013480249L17.0000000000000,83.2277837485410L17.0000000000000,83.6782543107418L17.0000000000000,83.9940513994414L17.0000000000000,84.2537828867286L17.0000000000000,84.8179305823438L17.0000000000000,85.3805233522132L17.0000000000000,85.6484818544549L17.0000000000000,85.9108718317843L17.0000000000000,86.4793277115787L17.0000000000000,87.0437624517755L17.0000000000000,87.3119123258127L17.0000000000000,87.5824080403519L17.0000000000000,88.1461825918248L17.0000000000000,88.7079319486991L17.0000000000000,88.9800424220699L17.0000000000000,89.2559656104772L17.0000000000000,89.8212213965927L17.0000000000000,90.3829163676764L17.0000000000000,90.6574930467380L17.0000000000000,90.9340262613759L17.0000000000000,91.4955386477746L17.0000000000000,92.0559272849238L17.0000000000000,92.3327470327166L17.0000000000000,92.6103695961893L17.0000000000000,93.1701759486189L17.0000000000000,93.7172715537508L17.0000000000000,94.0188141445757L17.0000000000000,94.3679452279191L17.0000000000000,94.8955973000469L17.0000000000000,95.3502475277240L17.0000000000000,95.7827707308043L17.0000000000000,96.2340758355261L17.0000000000000,96.6408324395395L17.0000000000000,97.0670677215294L17.0000000000000,97.5317157445414L17.0000000000000,97.9872910632497L17.0000000000000,98.3866457022154L17.0000000000000,98.7784002587039L17.0000000000000,99.2246611541456L17.0000000000000,99.6780150895976L17.0000000000000,100.0633561897610L17.0000000000000,100.4448948273817L17.0000000000000,100.8993173503933L17.0000000000000,101.3553048012709L17.0000000000000,101.7355029592371L17.0000000000000,102.1160159925309L17.0000000000000,102.5722576470307L17.0000000000000,103.0283775811947L17.0000000000000,103.4094022634100L17.0000000000000,103.7921026298880L17.0000000000000,104.2479183490552L17.0000000000000,104.7020831701987L17.0000000000000,105.0888075483994L17.0000000000000,105.4783425611664L17.0000000000000,105.9297982053571L17.0000000000000,106.3788870996203L17.0000000000000,106.7687461292157L17.0000000000000,107.1588092332931L17.0000000000000,107.6069024698288L17.0000000000000,108.0544238807145L17.0000000000000,108.4450442732611L17.0000000000000,108.8362755145224L17.0000000000000,109.2831013188926L17.0000000000000,109.7294279445329L17.0000000000000,110.1211609592468L17.0000000000000,110.5132725663148L17.0000000000000,110.9593547312396L17.0000000000000,111.4047929198750L17.0000000000000,111.7975952951300L17.0000000000000,112.1637198733913L17.0000000000000,112.5772951645533L17.0000000000000,113.0207768852486L17.0000000000000,113.3687904337432L17.0000000000000,113.5613678284608L17.0000000000000,114.1128814341484L17.0000000000000,114.5675844630591L17.0000000000000,114.7971789318827L17.0000000000000,115.0980277386492L17.0000000000000,115.5875216341778L17.0000000000000,116.1031028919143L17.0000000000000,116.4185985567947L17.0000000000000,116.7341858972474L17.0000000000000,117.2651578765651L17.0000000000000,117.7990150870376L17.0000000000000,118.1127884048758L17.0000000000000,118.4241488896039L17.0000000000000,118.9561415291083L17.0000000000000,119.4921545003949L17.0000000000000,119.7882870401994L17.0000000000000,120.0866977469947L17.0000000000000,120.6260932769899L17.0000000000000,121.1652490671034L17.0000000000000,121.4689348803489L17.0000000000000,121.7791743333788L17.0000000000000,122.3140714018880L17.0000000000000,122.8485440912600L17.0000000000000,123.1535139478540L17.0000000000000,123.4576411367712L17.0000000000000,123.9948855001704L17.0000000000000,124.5461176657877L17.0000000000000,124.8471271016791L17.0000000000000,125.1413246931030L17.0000000000000,125.7028448359115L17.0000000000000,126.2642028478944L17.0000000000000,126.5428314844080L17.0000000000000,126.8232325463934L17.0000000000000,127.3839325500277L17.0000000000000,127.7136117884048L17.0000000000000,128.3385415901308L17.0000000000000,128.9449069458572L17.0000000000000,129.1641154832835L17.0000000000000,129.3867996362933L17.0000000000000,129.9999471276238L17.0000000000000,130.6129185150502L17.0000000000000,130.8369794466223L17.0000000000000,131.0610338759527L17.0000000000000,131.6735355313464L17.0000000000000,132.2855348357289L17.0000000000000,132.5090243856926L17.0000000000000,132.7324691161832L17.0000000000000,133.3441333433930L17.0000000000000,133.9494536949135L17.0000000000000,134.1767660817732L17.0000000000000,134.4091672181310L17.0000000000000,134.9998210597011L17.0000000000000,135.5228133303027L17.0000000000000,135.7894256469742L17.0000000000000,136.0533301105244L17.0000000000000,136.5608745929014L17.0000000000000,137.1038130711829L17.0000000000000,137.3318903014672L17.0000000000000,137.5780864566713L17.0000000000000,138.2157468320289L17.0000000000000,138.9068214084335L17.0000000000000,139.1472865854854L17.0000000000000,139.3614824536218L17.0000000000000,140.0448887459805L17.0000000000000,140.6818044125527L17.0000000000000,140.8891332492995L17.0000000000000,141.0978093212501L17.0000000000000,141.7303186301995L17.0000000000000,142.3065831110387L17.0000000000000,142.5414894938144L17.0000000000000,142.7829087173490L17.0000000000000,143.3477842408111L17.0000000000000,143.9276561891693L17.0000000000000,144.1425889744081L17.0000000000000,144.3227600663885L17.0000000000000,144.8741235673297L17.0000000000000,145.5840988813874L17.0000000000000,145.6729779426280L17.0000000000000,145.7744400963964L17.0000000000000,146.4612379396791L17.0000000000000,147.0783929902951L17.0000000000000,147.2955024951596L17.0000000000000,147.5257669927594L17.0000000000000,148.1398417287799L17.0000000000000,148.7320743376584L17.0000000000000,148.9840564686509L17.0000000000000,149.2327465844117L17.0000000000000,149.8293470636102L17.0000000000000,150.4185301848351L17.0000000000000,150.7005417301314L17.0000000000000,151.0191155235374L17.0000000000000,151.5749037651420L17.0000000000000,152.0819476420280L17.0000000000000,152.4585305804421L17.0000000000000,152.8397947543976L17.0000000000000,153.3062698230655L17.0000000000000,153.7935652197238L17.0000000000000,154.1574777514261L17.0000000000000,154.4797514973830L17.0000000000000,155.0115435807621L17.0000000000000,155.5857308846121L17.0000000000000,155.8670498573412L17.0000000000000,156.1171688300421L17.0000000000000,156.7590652381281L17.0000000000000,157.4915534351749L17.0000000000000,157.6105607914870L17.0000000000000,157.7287335620566L17.0000000000000,158.4649124304082L17.0000000000000,159.2348028849930L17.0000000000000,159.3181548184867L17.0000000000000,159.4006838171961L17.0000000000000,160.1672602939133L17.0000000000000,160.9237917257414L17.0000000000000,161.0088776154509L17.0000000000000,161.0965886536000L17.0000000000000,161.8469340368538L17.0000000000000,162.5806549178174L17.0000000000000,162.6823372653706L17.0000000000000,162.7901276822096L17.0000000000000,163.4837837810985L17.0000000000000,164.1288375073117L17.0000000000000,164.2907602182249L17.0000000000000,164.4851396892772L17.0000000000000,165.0918383138340L17.0000000000000,165.6057049972055L17.0000000000000,165.9155709263936L17.0000000000000,166.2433164931541L17.0000000000000,166.7483442549193L16.7187943483086,166.7483442549193L16.1029284122069,166.7483442549193L15.8336331719753,166.7483442549193L15.1720091073584,166.7483442549193L14.8703385205400,166.7483442549193L14.1840804233129,166.7483442549193L13.8673375296576,166.7483442549193" fill="none" stroke="black" stroke-width="0.05" />
</svg>