<svg xmlns="http://www.w3.org/2000/svg" xmlns:ns1="https://github.com/mikedh/trimesh" width="49.00mm" height="44.00mm" viewBox="0 0 49.00 44.00" ns1:class="Path2D" ns1:metadata="base64,e30=" data-slice-direction="[0, 1, 0]" data-layer-number="9" data-current-height="16.000">
<path d="M9.7928060753360,28.0000000000000L9.9931113378922,28.0000000000000L10.6568066620071,28.0000000000000L11.0338738874779,28.0000000000000L11.5198109641589,28.0000000000000L12.3822931410115,28.0000000000000L13.2438427991042,28.0000000000000L13.7370790268435,28.0000000000000L14.1060405063731,28.0000000000000L14.7571394533439,28.0000000000000L14.9672865411532,28.0000000000000L15.0843768563242,28.0000000000000L15.8253627272861,28.0000000000000L16.3804703726040,28.0000000000000L16.6841481290421,28.0000000000000L17.4978027955000,28.0000000000000L17.5549052695843,28.0000000000000L18.5827937154074,28.0000000000000L18.5995908385264,28.0000000000000L18.6285634545657,28.0000000000000L19.4737277071953,28.0000000000000L19.9039089104014,28.0000000000000L20.3341486988965,28.0000000000000L21.0549498290344,28.0000000000000L21.1744711401657,28.0000000000000L21.2465606044636,28.0000000000000L21.9887093773760,28.0000000000000L22.4877188762377,28.0000000000000L22.8296955708016,28.0000000000000L23.4234963327103,28.0000000000000L23.6777095457677,28.0000000000000L23.8483025365499,28.0000000000000L24.5138545330183,28.0000000000000L25.1809396065463,28.0000000000000L25.2956024789404,28.0000000000000L25.4537392512081,28.0000000000000L26.0046504948322,28.0000000000000L26.3002142421627,28.0000000000000L26.8462176977525,28.0000000000000L27.3422187624394,28.0000000000000L27.6129469949619,28.0000000000000L28.1166356080524,28.0000000000000L28.6858402263638,28.0000000000000L28.6816619783665,27.8387654159894L28.6816619783665,27.0567580362494L28.6856249653116,26.9078926831273L28.6856249653116,26.0754704921126L28.6821751058608,25.8949745767926L28.6821751058608,25.1050254232074L28.6833900184357,24.9034293897747L28.6833900184357,24.0965706102253L28.6821719727337,23.8949511060994L28.6821719727337,23.1050488939006L28.6821707009996,22.8949415767293L28.6821707009996,22.1050584232707L28.6833900184357,21.9034293897744L28.6833900184357,21.0965706102256L28.6829899839579,20.9018397688498L28.6829899839579,20.1002778910146L28.6833900184356,19.9034293897739L28.6833900184356,19.0965706102261L28.6829628816459,18.9000271709688L28.6829628816459,18.0988333299983L28.6831325311797,17.9061760464969L28.6831325311797,17.1026978934474L28.6808831126483,16.9380857656484L28.6808831126483,16.1691947158629L28.6858402263638,16.0000000000000L27.9703152589307,16.0000000000000L27.4089350503259,16.0000000000000L27.0627605960216,16.0000000000000L26.8247850755381,16.0000000000000L26.2251897544194,16.0000000000000L26.0819478616457,16.0000000000000L25.7475959642946,16.0000000000000L25.3380532803235,16.0000000000000L25.1204364249016,16.0000000000000L24.5467639062119,16.0000000000000L23.8288528707142,16.0000000000000L23.6844318641970,16.0000000000000L23.3913873547355,16.0000000000000L22.8603870166334,16.0000000000000L22.5764138105634,16.0000000000000L22.0232348698257,16.0000000000000L21.2594448578221,16.0000000000000L21.1245556785287,16.0000000000000L20.7903778483545,16.0000000000000L20.2428480433198,16.0000000000000L19.9913286444508,16.0000000000000L19.4565075966338,16.0000000000000L18.6288339581380,16.0000000000000L18.5996067578364,16.0000000000000L18.5826728233326,16.0000000000000L17.5549631727944,16.0000000000000L17.4977028885145,16.0000000000000L16.6841648201716,16.0000000000000L16.3802492850139,16.0000000000000L15.8243881096360,16.0000000000000L15.0762599662662,16.0000000000000L14.9655198595281,16.0000000000000L14.7686728613577,16.0000000000000L14.1060776775321,16.0000000000000L13.7311328396035,16.0000000000000L13.2446742467944,16.0000000000000L12.3823231842167,16.0000000000000L11.5198264515030,16.0000000000000L11.0337255718634,16.0000000000000L10.6568222137318,16.0000000000000L9.9934393924803,16.0000000000000L9.7928208978476,16.0000000000000L9.6787031167161,16.0000000000000L8.9271499214577,16.0000000000000L8.3228962998640,16.0000000000000L8.0608860528764,16.0000000000000L7.5934106418231,16.0000000000000L7.1950171059252,16.0000000000000L7.0005465484295,16.0000000000000L6.2762812734021,16.0000000000000L5.8982790266101,16.0000000000000L5.2768069298758,16.0000000000000L5.0784360887585,16.0000000000000L4.5587440416576,16.0000000000000L4.2231239544221,16.0000000000000L4.2216888334851,15.7974899272020L4.2263020972408,15.2161975159164L4.2258946677015,14.9013635378605L4.2260743342978,14.2427110677906L4.2252612663705,13.8118122745839L4.2250808663320,13.2521900347904L4.2250728919335,12.8195550452199L4.2250732593626,12.2586910434497L4.2250820804114,11.8224813016579L4.2250854249977,11.2641895977659L4.2250775292731,10.8313951222479L4.2250934359979,10.2741003669426L4.2250889813298,9.8403710214108L4.2250916490737,9.2790458447378L4.2250548364064,8.8437242088117L4.2250793622595,8.2893311667681L4.2250654984463,7.8515667970883L4.2250801803588,7.2994670484496L4.2250677796027,6.8600512868971L4.2250509732456,6.3080312052067L4.2250369871157,5.8689313008751L4.2247329004792,5.3030046854183L4.2257497460285,4.8906401290166L4.2261690120541,4.2896266385005L4.2242551856198,3.8768370004228L4.2242186537069,3.2545801230287L4.2263084555706,2.8743884286437L4.2216900495376,2.2086729943411L4.2231239544221,2.0000000000000L4.0856208386598,2.0000000000000L3.3154355360379,2.0000000000000L2.5900299480792,2.0000000000000L2.3630861806420,2.0000000000000L2.3630861806420,2.1950874881396L2.3630861806420,2.8913280703301L2.3630861806420,3.4256070723208L2.3630861806420,3.7524497920574L2.3630861806420,4.1732132147923L2.3630861806420,4.7811308566959L2.3630861806420,5.0340790193190L2.3630861806420,5.9203481275783L2.3630861806420,5.9376667228870L2.3630861806420,6.0038912695827L2.3630861806420,6.8421111768026L2.3630861806420,7.0657281048439L2.3630861806420,7.7568687358543L2.3630861806420,8.2247142365782L2.3630861806420,8.6441883410136L2.3630861806420,9.3637834989373L2.3630861806420,9.5476537855731L2.3630861806420,10.2290547932008L2.3630861806420,10.4529379059298L2.3630861806420,10.5133631194071L2.3630861806420,11.3587955451101L2.3630861806420,11.6628417826831L2.3630861806420,12.2641838509223L2.3630861806420,12.8130233780703L2.3630861806420,13.1702526689066L2.3630861806420,13.9645315423366L2.3630861806420,14.0782032041935L2.3630861806420,14.4979679586569L2.3630861806420,14.9816963231917L2.3630861806420,15.1114057556228L2.3630861806420,15.8794349398669L2.3630861806420,16.2466085716934L2.3630861806420,16.7760945490982L2.3630861806420,17.3772004473422L2.3630861806420,17.6625700517224L2.3630861806420,18.5170170130774L2.3630861806420,18.5638657152073L2.3630861806420,18.7460760705671L2.3630861806420,19.4723386540391L2.3630861806420,19.6545630839800L2.3630861806420,20.3864957745930L2.3630861806420,20.7967779655333L2.3630861806420,21.2984617626154L2.3630861806420,21.9556384951876L2.3630861806420,22.1884723537711L2.3630861806420,23.0260260838877L2.3630861806420,23.0907959425600L2.3630861806420,23.1093031415132L2.3630861806420,23.9944839418848L2.3630861806420,24.2586566990983L2.3630861806420,24.8851515216472L2.3630861806420,25.3721343343423L2.3630861806420,25.7637891302681L2.3630861806420,26.4563698116192L2.3630861806420,26.7703151358295L2.3630861806420,27.4770884271225L2.3630861806420,27.6358409152358L2.3630861806420,27.7098531172995L2.3630861806420,28.5347574792431L2.3630861806420,28.8641248225420L2.3630861806420,29.4183823142117L2.3630861806420,30.0021103571566L2.3630861806420,30.3481731716692L2.3630861806420,31.1495935914155L2.3630861806420,31.2562027058551L2.3630861806420,31.6561608148431L2.3630861806420,32.1645884697877L2.3630861806420,32.2993596418306L2.3630861806420,33.0734121118253L2.3630861806420,33.4450604637524L2.3630861806420,33.9767376433739L2.3630861806420,34.5289249393910L2.3630861806420,34.7840060229927L2.3630861806420,35.5110950474540L2.3630861806420,35.6375614764501L2.3630861806420,36.3826750289322L2.3630861806420,36.6993025443202L2.3630861806420,37.2418769451678L2.3630861806420,37.9178169340468L2.3630861806420,38.1329783581257L2.3630861806420,38.7554447701075L2.3630861806420,39.0241573921867L2.3630861806420,39.1133115593880L2.3630861806420,39.8725000074391L2.3630861806420,40.2023687418697L2.3630861806420,40.6232608037372L2.3630861806420,41.1115821861685L2.3630861806420,41.8172740290508L2.3630861806420,42.0000000000000L2.5900299480852,42.0000000000000L3.3154355360401,42.0000000000000L4.0856208386863,42.0000000000000L4.2231239544217,42.0000000000000L4.2216909909059,41.7898303016395L4.2263133776691,41.1213295995182L4.2250670726049,40.7429905424747L4.2251130998743,40.0625385070887L4.2250165193534,39.6622732361065L4.2250276648337,39.1162617319302L4.2250849950662,38.6767814264920L4.2250664009709,38.1279354220040L4.2250857509194,37.6877384272077L4.2250675901038,37.1367912441976L4.2250822897662,36.6980844204762L4.2250637669856,36.1453761369599L4.2250785111212,35.7084794402642L4.2250598713365,35.1539486345760L4.2250745087496,34.7188682482798L4.2250558534678,34.1625268085924L4.2250704759107,33.7292649020944L4.2250518215844,33.1710937895700L4.2250662835160,32.7396443474597L4.2250906722293,32.1803480709491L4.2251052412137,31.7483764929062L4.2256707064407,31.1975589243565L4.2255851535811,30.7427302709203L4.2249492561740,30.2063914864772L4.2241701408512,29.8248164559734L4.2241849663466,29.2596207379882L4.2263533975355,28.8766264107363L4.2216685630888,28.2118629230818L4.2231239544217,28.0000000000000L4.5587853552988,28.0000000000000L5.0784407167174,28.0000000000000L5.2767579653479,28.0000000000000L5.8983220340880,28.0000000000000L6.2762552866040,28.0000000000000L7.0006761713048,28.0000000000000L7.1949979126406,28.0000000000000L7.5930705369174,28.0000000000000L8.0608786853715,28.0000000000000L8.3230694971803,28.0000000000000L8.9271386281421,28.0000000000000L9.6788685599645,28.0000000000000L9.7928060753360,28.0000000000000" fill="none" stroke="black" stroke-width="0.05" />
<path d="M44.7752371276382,14.1931846421444L44.7763215584635,14.7029677058057L44.7736502723314,15.1419813948171L44.7783111665143,15.7974899270419L44.7768760455761,16.0000000000000L44.1500581288876,16.0000000000000L43.8456930147551,16.0000000000000L43.7946294727870,16.0000000000000L43.7067910004476,16.0000000000000L42.7672720815385,16.0000000000000L42.1367518301079,16.0000000000000L41.8756906647944,16.0000000000000L41.5141962049333,16.0000000000000L41.0794958160115,16.0000000000000L40.7363201967924,16.0000000000000L40.3087710438745,16.0000000000000L39.6881144162314,16.0000000000000L39.4995181200371,16.0000000000000L39.4187414545267,16.0000000000000L38.6908552959008,16.0000000000000L38.5868171369805,16.0000000000000L38.5754862946239,16.0000000000000L38.4759104307520,16.0000000000000L38.0264963245995,16.0000000000000L37.9622593943017,16.0000000000000L37.5848166673231,16.0000000000000L36.9968361261861,16.0000000000000L37.0014606656456,16.0568786313372L36.9576107322489,16.5721955575181L36.9976304553767,17.3568186824762L36.9740049241051,17.4889787730133L36.9740049241051,17.5997861289965L36.9882557324525,18.5822982980182L36.9882557324525,18.6473661629437L37.0040462891118,18.7639615356807L36.9601429311384,19.5016331348868L36.9985754396686,20.1602736582647L36.9588767039779,20.4213203298561L36.9588767039779,20.5786796701439L36.9985754396686,20.8397263417353L36.9612998238143,21.5000000000000L36.9985754396686,22.1602736582647L36.9588767039779,22.4213203298561L36.9588767039779,22.5786796701439L36.9985754396686,22.8397263417353L36.9612998238143,23.5000000000000L36.9985754396686,24.1602736582647L36.9588767039779,24.4213203298561L36.9588767039779,24.5786796701439L37.0013115750473,24.9219103389163L36.9727295993925,25.5032498418658L36.9738881811013,25.6646743297311L36.9702399611839,26.5128169261418L36.9860824578036,26.7788861803176L36.9558059334997,27.4318774076806L37.0021428112721,27.9347338028469L36.9968361261861,28.0000000000000L37.5848511841325,28.0000000000000L37.9625470801600,28.0000000000000L38.0263948485493,28.0000000000000L38.4698357573554,28.0000000000000L38.5751696432193,28.0000000000000L38.5872718798076,28.0000000000000L38.6973290613879,28.0000000000000L39.4188198697108,28.0000000000000L39.4994846927807,28.0000000000000L39.6878294562328,28.0000000000000L40.3087282996700,28.0000000000000L40.7362764488122,28.0000000000000L41.0793220698028,28.0000000000000L41.5139730367970,28.0000000000000L41.8756161351399,28.0000000000000L42.1367707774774,28.0000000000000L42.7672306407915,28.0000000000000L43.7068024401326,28.0000000000000L43.7946264389041,28.0000000000000L43.8456827549503,28.0000000000000L44.1500232605644,28.0000000000000L44.7768760455738,28.0000000000000L44.7783111665135,28.2025100731770L44.7736979027605,28.7836484885336L44.7741063751531,29.0985155613142L44.7739251461458,29.7567751940649L44.7747469210208,30.1882897050410L44.7749283477141,30.7475166622834L44.7749046903094,31.1799932799359L44.7748906931179,31.7415551503750L44.7748921350119,32.1773857748592L44.7749175375352,32.7364161846440L44.7749251153628,33.1677573627046L44.7749115918164,33.7266185882966L44.7749179289012,34.1587893026410L44.7749081049329,34.7218862935252L44.7749502655119,35.1561934765735L44.7749227008098,35.7114196061471L44.7749362532069,36.1484862238593L44.7749216407782,36.7012861807941L44.7749340282586,37.1399801012344L44.7749508223833,37.6926940553293L44.7749643302596,38.1310847037952L44.7752691579444,38.6977590876121L44.7742543287654,39.1093634609941L44.7738333020068,39.7110353284688L44.7757474213184,40.1232892191101L44.7757790872458,40.7472842699362L44.7736495020884,41.1287496945344L44.7783100899206,41.7920188985258L44.7768760455738,42.0000000000000L44.9136442287926,42.0000000000000L45.5323570584800,42.0000000000000L45.7172043683816,42.0000000000000L46.2344630692820,42.0000000000000L46.9223069349403,42.0000000000000L47.0000000000000,42.0000000000000L47.0000000000000,41.9153700755172L47.0000000000000,41.1259042672497L47.0000000000000,40.2823156640443L47.0000000000000,40.2506989856683L47.0000000000000,40.2216964508787L47.0000000000000,39.3826595738683L47.0000000000000,38.7888777714683L47.0000000000000,38.4668083610751L47.0000000000000,37.7144467507979L47.0000000000000,37.5050517253573L47.0000000000000,36.6943306588720L47.0000000000000,36.5434679625211L47.0000000000000,35.6746909704415L47.0000000000000,35.5823155011498L47.0000000000000,34.6554064113935L47.0000000000000,34.6216202177515L47.0000000000000,34.0685518825228L47.0000000000000,33.6612842910878L47.0000000000000,33.6364092647344L47.0000000000000,32.7012725226782L47.0000000000000,32.6177055463283L47.0000000000000,31.7419649814903L47.0000000000000,31.5981047701215L47.0000000000000,30.7832746952678L47.0000000000000,30.5775366829208L47.0000000000000,29.8214445636143L47.0000000000000,29.5527147892669L47.0000000000000,28.8480881825784L47.0000000000000,28.5109725707843L47.0000000000000,27.8700422695134L47.0000000000000,27.4864916783313L47.0000000000000,26.9310708726348L47.0000000000000,26.5521453062929L47.0000000000000,26.0084933383896L47.0000000000000,25.6289142438842L47.0000000000000,25.1827552954227L47.0000000000000,24.4840190831559L47.0000000000000,24.2875273789428L47.0000000000000,24.0785336906220L47.0000000000000,23.3654574291999L47.0000000000000,22.9010466963994L47.0000000000000,22.3230580179261L47.0000000000000,21.7544428165054L47.0000000000000,21.2547188949664L47.0000000000000,20.8404679654132L47.0000000000000,20.1675395696672L47.0000000000000,19.9909019967043L47.0000000000000,19.1776606195073L47.0000000000000,19.0461148721214L47.0000000000000,18.3663460830471L47.0000000000000,18.2035056198631L47.0000000000000,17.5228337271103L47.0000000000000,17.4440397798136L47.0000000000000,17.2008299845216L47.0000000000000,16.5556896826058L47.0000000000000,16.3496564985880L47.0000000000000,15.4746498203891L47.0000000000000,15.3434025772413L47.0000000000000,14.5043189974533L47.0000000000000,14.3333758949702L47.0000000000000,13.5425133084741L47.0000000000000,13.3139935364274L47.0000000000000,12.5837426633930L47.0000000000000,12.2933585786755L47.0000000000000,11.6246555758663L47.0000000000000,11.2732416875513L47.0000000000000,10.6644856445008L47.0000000000000,10.2545879808721L47.0000000000000,9.7049003429545L47.0000000000000,9.2354030644738L47.0000000000000,8.7454248977760L47.0000000000000,8.2155261880373L47.0000000000000,7.7889959229754L47.0000000000000,7.1932314040365L47.0000000000000,6.8296786021152L47.0000000000000,6.1695892243588L47.0000000000000,5.8727145851284L47.0000000000000,5.1487780228523L47.0000000000000,4.9131297131576L47.0000000000000,4.0083511185364L47.0000000000000,3.8819375552357L47.0000000000000,3.6784050208333L47.0000000000000,2.8582872683007L47.0000000000000,2.0846780394810L47.0000000000000,2.0000000000000L46.9223069349418,2.0000000000000L46.2344630692623,2.0000000000000L45.7172043682836,2.0000000000000L45.5323570584873,2.0000000000000L44.9136442286480,2.0000000000000L44.7768760455761,2.0000000000000L44.7781036127546,2.1738050879567L44.7750789541030,2.7910123186725L44.7753551557993,3.2327840559983L44.7749469373001,3.7792383279688L44.7749812002277,4.3762994858030L44.7748609631666,4.7911627510955L44.7748662915781,5.3699404657087L44.7749639224914,5.7861430542896L44.7749808752096,6.3599107594899L44.7749583576343,6.7757087579036L44.7749780725566,7.3515563900188L44.7749773352477,7.7659797149488L44.7749962256293,8.3429153089780L44.7749819293088,8.7558597259808L44.7749981601135,9.3346897093429L44.7749766889862,9.7465746049838L44.7750054764265,10.3277071658996L44.7749849645934,10.7359041019048L44.7750150348586,11.3206809180333L44.7749990224967,11.7263374157442L44.7750250505449,12.3127161104136L44.7750167827864,12.7162001434026L44.7751320979521,13.2988575659505L44.7751204561168,13.6954328396668L44.7752371276382,14.1931846421444" fill="none" stroke="black" stroke-width="0.05" />
</svg>